<svg width="304" height="128" viewBox="0 0 304 128" version="1.1" xmlns="http://www.w3.org/2000/svg" xmlns:xlink="http://www.w3.org/1999/xlink">
<title>Page 1</title>
<desc>Created using Figma</desc>
<g id="Canvas" transform="translate(-8696 1989)">
<g id="Page 1">
<g id="Fill 1">
<use xlink:href="#path0_fill" transform="translate(8827.79 -1987.81)" fill="#FAF6EA"/>
</g>
<g id="Fill 3">
<use xlink:href="#path1_fill" transform="translate(8962.78 -1987.9)" fill="#FAF6EA"/>
</g>
<g id="Fill 5">
<use xlink:href="#path2_fill" transform="translate(8871.08 -1987.85)" fill="#FAF6EA"/>
</g>
<g id="Fill 7">
<use xlink:href="#path3_fill" transform="translate(8738.23 -1987.81)" fill="#FAF6EA"/>
</g>
<g id="Fill 9">
<use xlink:href="#path4_fill" transform="translate(8914.28 -1987.84)" fill="#FAF6EA"/>
</g>
<g id="Fill 11">
<use xlink:href="#path5_fill" transform="translate(8785.78 -1989)" fill="#FAF6EA"/>
</g>
<g id="Fill 13">
<use xlink:href="#path6_fill" transform="translate(8696 -1987.85)" fill="#FAF6EA"/>
</g>
<g id="Fill 15">
<use xlink:href="#path7_fill" transform="translate(8817.45 -1924.89)" fill="#FAF6EA"/>
</g>
<g id="Fill 17">
<use xlink:href="#path8_fill" transform="translate(8728.97 -1900.07)" fill="#FAF6EA"/>
</g>
<g id="Fill 19">
<use xlink:href="#path9_fill" transform="translate(8778.41 -1899.55)" fill="#FAF6EA"/>
</g>
</g>
</g>
<defs>
<path id="path0_fill" fill-rule="evenodd" d="M 35.9616 0L 35.9616 10.2182L 23.3591 10.2182L 23.3591 62.9161C 23.3591 62.9161 21.565 60.1382 17.9794 59.0216C 14.6951 57.9976 12.6106 58.5151 12.6106 58.5151L 12.6106 10.2645L 0 10.2645L 0 0L 35.9616 0Z"/>
<path id="path1_fill" fill-rule="evenodd" d="M 25.7364 48.775C 22.7045 48.5326 19.6591 48.9983 16.82 48.2902C 13.8723 47.5576 11.7606 45.4525 11.5108 42.0999C 11.2313 38.3743 10.9028 19.0164 11.8447 15.3507C 12.5287 12.6899 14.0188 10.3532 16.9638 10.0182C 19.8247 9.69143 22.7507 9.94743 25.7364 9.94743L 25.7364 48.775ZM 21.6329 0.0450754C 19.3067 0.0777562 16.9589 0.186692 14.6599 0.538012C 10.2139 1.21614 6.39486 3.08984 3.81086 6.98703C 2.16871 9.46261 1.13457 12.2132 0.860429 15.1246C 0.390857 20.0757 0.0868572 40.6701 1.22957 45.5804C 2.204 49.7554 4.10671 53.3802 8.06686 55.4745C 9.02771 55.9811 9.20414 56.4876 8.80786 57.3727C 2.97757 70.3579 0 75.5052 0 75.5052L 12.2713 75.1593C 12.2713 75.1593 19.3311 58.6391 19.57 58.6309C 21.6383 58.552 23.712 58.5846 25.8726 58.5846L 25.8726 75.5705L 36.6429 75.5705L 36.6429 0.0123945C 31.6404 0.0123945 26.6353 -0.03118 21.6329 0.0450754Z"/>
<path id="path2_fill" fill-rule="evenodd" d="M 0 0L 10.659 0L 10.659 50.3203L 25.1804 50.3203L 25.1804 0.0680851L 35.929 0.0680851L 35.929 75.4274L 25.251 75.4274L 25.251 60.1763L 10.754 60.1763L 10.754 75.4356L 0 75.4356L 0 0Z"/>
<path id="path3_fill" fill-rule="evenodd" d="M 15.3984 49.6286L 21.0984 21.632L 26.7713 49.6286L 15.3984 49.6286ZM 25.9404 0L 16.4431 0L 0 75.4791C 3.32771 75.4791 6.479 75.4356 9.633 75.5009C 10.5884 75.5227 10.8463 75.1796 11.0336 74.2999C 12.0759 69.3242 13.1969 64.3704 14.6734 59.3021C 18.8969 59.294 23.123 59.2694 27.3464 59.3212C 27.6477 59.3266 28.1336 59.8223 28.215 60.1682C 29.0727 63.842 29.8653 67.5268 30.6796 71.2116L 31.6296 75.4111L 42.3673 75.4111L 25.9404 0Z"/>
<path id="path4_fill" fill-rule="evenodd" d="M 15.4033 49.6149L 21.0789 21.5884L 26.7653 49.6149L 15.4033 49.6149ZM 25.935 0L 16.4486 0L 0 75.5009C 3.37386 75.5009 6.56857 75.471 9.76329 75.5254C 10.6183 75.5391 10.8436 75.1932 11.0064 74.4388C 12.0731 69.4277 13.1914 64.4276 14.2853 59.4574L 14.5594 59.3457C 18.8209 59.3294 23.0877 59.3049 27.3519 59.343C 27.645 59.3484 28.1173 59.7706 28.1933 60.081C 28.7361 62.2679 29.2003 64.4766 29.6861 66.6771L 31.6079 75.4329L 42.3673 75.4329L 25.935 0Z"/>
<path id="path5_fill" fill-rule="evenodd" d="M 25.2714 28.7994C 25.1466 26.6398 25.1764 18.2245 24.8752 16.1683C 24.3676 12.6905 21.6262 10.6943 17.9972 10.6452C 14.3003 10.5935 11.4394 13.5811 11.1029 16.4461C 10.9454 17.7506 10.8152 19.066 10.8152 20.3787C 10.8152 33.6689 10.8314 46.9591 10.8776 60.2493C 10.8912 63.4766 12.6934 66.1754 15.4457 66.8236C 19.9922 67.8912 25.1629 66.1836 25.4479 59.977C 25.5103 58.5908 25.456 52.2234 25.456 50.7773L 35.8924 50.7773C 36.1367 56.472 35.8382 66.9897 32.1956 71.7067C 29.6957 74.9394 26.1943 76.6606 22.2722 77.3305C 18.5889 77.9596 14.8459 78.0304 11.1979 76.9166C 5.88601 75.2961 0.568726 70.1516 0.297298 63.5691C 0.164298 60.3256 0.0421549 57.0793 0.0340121 53.8303C 0.00415492 42.4737 -0.0365594 31.1171 0.0638692 19.7605C 0.0882978 17.0316 0.392298 14.2537 0.994869 11.5957C 2.02087 7.03673 5.1043 3.95656 9.20558 2.0529C 15.9397 -1.06268 22.6033 -0.648721 28.8407 3.40915C 32.9094 6.05358 34.8583 10.1795 35.4066 14.8883C 35.6916 17.3584 35.4554 26.1931 35.4554 28.7994L 25.2714 28.7994Z"/>
<path id="path6_fill" fill-rule="evenodd" d="M 0.0685806 0L 10.7167 0L 10.7167 1.44885C 10.7167 9.01447 10.7032 32.1906 10.7249 39.759C 10.7303 41.4012 10.8009 43.0461 10.9366 44.6829C 11.3953 50.1678 14.6687 52.0851 19.6603 51.5105C 23.8647 51.0311 24.0737 50.658 24.0737 46.4586L 24.0737 1.73209L 24.0737 0.0490213L 34.7273 0.0490213L 34.7273 75.4519L 24.1063 75.4519L 24.1063 59.983C 22.323 60.3806 20.7162 60.8708 19.0767 61.0778C 15.1274 61.5871 11.2216 61.3828 7.54644 59.6426C 3.41529 57.6844 1.34158 54.1631 0.581581 49.822C 0.209724 47.6895 0.0522949 45.4972 0.0360092 43.3266C -0.0237051 34.4456 0.00886633 9.95677 0.00886633 1.0703C 0.00886633 0.748936 0.044152 0.427574 0.0685806 0Z"/>
<path id="path7_fill" fill-rule="evenodd" d="M 136.811 45.9621C 134.281 51.6595 129.037 58.6967 125.055 56.7658C 121.787 55.1808 123.513 47.2339 127.047 39.9161C 129.338 35.172 132.571 30.0874 137.487 31.3701C 142.91 32.7863 139.121 40.7577 136.811 45.9621ZM 65.8241 32.1C 64.4751 31.076 62.4041 25.6945 65.4957 24.6079C 68.3131 23.6139 68.6199 28.7992 65.8241 32.1ZM 52.3048 47.7787C 49.87 53.5877 45.975 60.8646 39.8706 57.8226C 35.3296 55.5676 38.166 45.6136 40.1665 40.1858C 42.5008 33.8485 46.659 28.7421 52.4025 31.5063C 56.6476 33.5462 54.5739 42.3591 52.3048 47.7787ZM 23.4436 42.231C 20.504 42.054 18.927 45.5318 21.207 47.7323C 21.3074 47.8304 15.4609 60.0966 8.04814 57.1172C 1.49314 54.4782 7.94228 36.9585 10.4041 32.8162C 10.4123 32.8026 10.4286 32.8271 10.4204 32.8408C 7.54328 39.1999 12.9909 37.5305 12.9909 37.5305C 12.9909 37.5305 14.4457 30.5558 21.1201 31.0978C 27.3467 31.6043 23.5576 42.2392 23.4436 42.231ZM 19.8037 9.00557C 21.5571 5.94446 24.9282 4.04897 26.7278 6.98208C 29.8655 12.0966 15.3305 23.2408 12.9609 24.0578C 14.0928 21.5005 17.4069 13.1833 19.8037 9.00557ZM 149.943 47.3157C 152.706 48.6801 150.13 59.3722 143.317 57.5911C 137.465 56.0605 152.288 26.3727 152.632 25.6837C 152.638 25.6755 152.627 25.6701 152.619 25.6701L 151.001 25.6701C 148.976 25.6701 147.082 26.6723 145.934 28.3445C 145.005 29.7007 144.063 31.0815 144.02 31.1686L 144.02 31.1659C 143.667 27.138 139.579 25.4331 135.625 25.6319C 119.901 26.4217 117.922 59.3776 109.589 57.5039C 107.741 57.0873 108.289 54.3666 109.264 51.379C 111.158 45.57 111.079 41.0873 104.351 40.5099C 103.013 40.3955 98.7837 41.1608 97.4483 41.5121C 97.4347 41.5176 97.4293 41.4903 97.4429 41.4822C 99.2777 40.7387 100.344 41.2044 104.807 34.9024C 109.866 27.7671 117.021 31.3919 112.059 35.4662C 110.851 36.4629 111.639 38.4701 113.053 39.2217C 116.942 41.2806 120.873 34.6301 119.04 29.826C 118.023 27.1543 108.088 17.4917 94.7096 40.5862C 94.7014 40.5998 94.6797 40.5943 94.6851 40.5753L 99.066 28.7366C 99.617 27.2524 98.5204 25.6701 96.9434 25.6701L 94.1477 25.6701C 94.1477 25.6701 89.851 36.3513 87.0254 44.7094L 87.0254 44.7121C 84.8947 49.9356 80.8586 58.0759 75.9701 57.6674C 69.521 57.1281 85.0793 30.9017 86.6481 25.6701C 86.6481 25.6701 82.9811 25.3977 81.3851 25.9942C 77.4766 27.4539 77.1047 35.1829 70.8591 34.9024C 69.3771 34.8398 68.5819 34.385 68.5873 34.3768C 70.0937 32.4595 71.8689 29.8641 71.9991 26.2583C 72.1294 22.6035 69.5753 20.2859 65.531 20.2859C 61.5736 20.2859 59.0167 23.7474 59.3207 27.6527C 59.603 31.2367 61.2451 33.8539 62.4367 35.2673C 62.4367 35.2673 62.225 35.3763 61.9183 35.4743C 60.971 35.7794 59.9559 35.1965 59.7279 34.2216C 58.7181 29.8859 57 26.4136 50.711 25.6319C 41.4499 24.4827 35.8177 35.7848 33.7793 41.3596C 32.3027 45.4011 28.1797 44.0803 28.1797 44.0803C 33.8824 25.0682 21.8201 24.4827 15.9057 27.7753C 15.8921 27.7807 15.8759 27.7589 15.8894 27.7535C 20.368 25.7763 30.6769 18.1371 31.9363 10.37C 32.813 4.96948 30.2833 -0.177757 24.3634 0.00471102C 11.3321 0.413222 6.479 29.3058 0 45.2214L 0 55.5322C 0.0407143 55.4641 0.0841429 55.4015 0.127571 55.3307C 0.133 55.3225 0.149286 55.3252 0.149286 55.3361C 0.415286 59.3531 3.75386 62.948 9.01143 62.85C 16.3617 62.7138 22.7864 57.0628 26.163 49.2738C 26.163 49.2738 29.3251 50.2869 31.996 49.154C 32.0069 49.1513 32.015 49.1567 32.0123 49.1676C 31.5807 56.1613 34.4117 62.1392 39.4711 62.7792C 53.5556 64.5439 57.7356 49.9574 59.9939 38.9576C 61.3401 39.4805 63.5523 39.1645 65.1673 37.9417C 67.5993 39.8536 72.922 39.6902 75.1124 38.1242C 75.126 38.116 75.1369 38.1296 75.1314 38.1433C 68.2914 53.8491 67.1406 62.1337 73.4784 62.8119C 79.2137 63.4273 82.3569 59.2769 82.7939 58.7812C 82.802 58.7703 82.8156 58.7867 82.8101 58.8003L 81.3906 62.8336C 81.3879 62.8418 81.3933 62.85 81.4041 62.85L 85.025 62.85C 86.2709 62.85 87.3783 62.0548 87.7827 60.8728L 93.214 44.9164C 93.2167 44.9055 93.2276 44.9055 93.233 44.9136C 94.4436 46.6811 98.971 45.6789 102 45.4011C 107.22 44.9164 103.789 49.892 103.162 54.4428C 102.578 58.6668 103.824 62.1991 107.57 62.85C 110.04 63.2803 114.407 63.1005 118.609 56.5862C 118.617 56.5725 118.633 56.5753 118.636 56.5943C 118.97 60.0558 121.893 62.4551 124.613 62.801C 131.124 63.6234 135.215 59.0345 137.085 55.2925C 137.09 55.2789 137.104 55.2871 137.101 55.3007C 136.493 59.2823 137.65 62.2808 141.387 62.85C 143.293 63.1414 148.1 63.1795 152.046 59.3531C 156.443 55.0883 157.233 49.1104 155.007 47.3811C 152.483 45.4202 149.943 47.3157 149.943 47.3157Z"/>
<path id="path8_fill" fill-rule="evenodd" d="M 57.6894 12.9617C 56.7611 14.8027 55.822 16.8725 54.8692 19.2337C 53.1592 23.4632 50.1844 30.367 43.4557 32.001C 40.3207 32.7636 38.6107 30.8164 40.2664 26.9055L 51.1751 1.1721C 51.1751 1.1721 44.9757 -1.78824 37.6688 1.70044C 25.365 7.57482 24.7081 20.353 17.3144 29.3403C 14.2011 33.1231 10.6182 32.3496 9.46196 32.001C 3.81624 30.2907 5.16524 19.5714 14.6381 21.8999C 14.6381 21.8999 18.1477 16.9733 12.578 15.9166C 9.50538 15.3338 1.15895 16.7663 0.0759549 26.0804C -0.757331 33.2538 5.42853 38.0252 10.6454 38.0252C 22.2924 38.0252 24.4394 30.3207 30.9021 16.5267C 34.1348 9.62282 39.9 5.58946 42.997 6.2458C 42.1202 7.62657 36.1678 20.5981 34.4388 26.7775C 34.3682 27.0254 34.3031 27.2623 34.2461 27.4911C 32.1398 35.5905 37.0527 37.9108 40.3017 37.9544C 46.1781 38.0252 52.1604 32.4177 53.7075 30.1546C 53.713 30.1573 53.7102 30.1573 53.7157 30.16C 53.3981 33.2347 54.8041 36.1978 57.6894 37.3798L 57.6894 12.9617Z"/>
<path id="path9_fill" fill-rule="evenodd" d="M 22.7921 20.3458C 20.2624 26.0431 15.0184 33.0804 11.0366 31.1495C 7.76858 29.5645 9.49486 21.6176 13.0289 14.2998C 15.3197 9.55564 18.5524 4.47104 23.468 5.75376C 28.8911 7.16993 25.102 15.1413 22.7921 20.3458ZM 40.1036 17.1294C 36.3904 26.6994 32.4249 34.0199 28.7144 33.1947C 22.3874 31.7867 38.2687 0.756278 38.6134 0.067257C 38.6189 0.0590868 38.608 0.05364 38.5999 0.05364L 36.9821 0.05364C 34.9573 0.05364 33.0627 1.05585 31.9146 2.72802C 30.9863 4.087 30.0417 5.47049 30.001 5.55219C 29.6509 1.52155 25.5604 -0.183296 21.6057 0.0155123C 9.05214 0.644619 5.25757 21.7646 0 29.3057C 0 29.3057 2.73329 32.0972 4.26957 29.6325C 4.58171 33.1185 4.98886 36.727 10.5559 37.5495C 17.0484 38.5081 21.1986 33.4153 23.066 29.6734C 23.0714 29.6625 23.085 29.6707 23.0823 29.6843C 22.4743 33.6686 23.1827 36.8959 26.9149 37.5059C 30.5574 38.1023 37.886 37.2499 42.18 22.4346C 42.5899 21.0102 40.5107 16.0782 40.1036 17.1294Z"/>
</defs>
</svg>
